# xmcd
#
# Track frame offsets:
#	150
#	17520
#	38101
#	55642
#	80326
#	106303
#	124313
#	144892
#	159949
#	179193
#	195291
#
# Disc length: 3081 seconds
#
# Revision: 0
# Processed by: cddbd v1.5.2PL0 Copyright (c) Steve Scherf et al.
# Submitted via: EZCDAudioConverter 1.2.3.1
#
DISCID=830c070b
DTITLE=JANE'S ADDICTION - STRAYS
DYEAR=1900
DGENRE=
TTITLE0=TRUE NATURE
TTITLE1=STRAYS
TTITLE2=JUST BECAUSE
TTITLE3=PRICE I PAY
TTITLE4=THE RICHES
TTITLE5=SUPERHERO
TTITLE6=WRONG GIRL
TTITLE7=EVERYBODY'S FRIEND
TTITLE8=SUFFER SOME
TTITLE9=HYPERSONIC
TTITLE10=TO MATCH THE SUN
EXTD=
EXTT0=
EXTT1=
EXTT2=
EXTT3=
EXTT4=
EXTT5=
EXTT6=
EXTT7=
EXTT8=
EXTT9=
EXTT10=
PLAYORDER=
